<svg id="Layer_1" data-name="Layer 1" xmlns="http://www.w3.org/2000/svg" viewBox="0 0 417.31 189.61"><defs><style>.cls-1{fill:none;}.cls-1,.cls-2,.cls-3{stroke:#959595;stroke-miterlimit:10;}.cls-2{fill:#353535;}.cls-3{fill:#fff23d;}</style></defs><title>bananabus-normal-stroke</title><path class="cls-1" d="M65.45,159.18h0A18.56,18.56,0,0,0,84,140.61H46.88a18.56,18.56,0,0,0,18.55,18.57Z" transform="translate(0.5 0.5)"/><path class="cls-2" d="M65.47,159.18h0A18.56,18.56,0,0,1,46.9,140.63v0H17.45a48,48,0,0,0,96,0H84A18.56,18.56,0,0,1,65.47,159.18Z" transform="translate(0.5 0.5)"/><path class="cls-1" d="M259.45,159.18h0A18.56,18.56,0,0,0,278,140.61H240.88a18.56,18.56,0,0,0,18.55,18.57Z" transform="translate(0.5 0.5)"/><path class="cls-2" d="M278,140.61a18.56,18.56,0,0,1-18.55,18.57h0a18.56,18.56,0,0,1-18.57-18.55v0H211.45a48,48,0,0,0,96,0v-.71a57.78,57.78,0,0,1-9,.71Z" transform="translate(0.5 0.5)"/><path class="cls-3" d="M414.52,9.22l-4.19-5.61a9,9,0,0,0-12.59-1.83L357.17,32a23,23,0,0,1-13.72,4.57h-240A104,104,0,0,0,.06,129.29a10.17,10.17,0,0,0,10.1,11.32H298.45a57.78,57.78,0,0,0,9-.71,57,57,0,0,0,48-56.29V66.75a4.44,4.44,0,0,1,1.79-3.57l55.45-41.37A9,9,0,0,0,414.52,9.22ZM101.45,105.05H75a9.5,9.5,0,0,1-9.5-9.5h0C65.5,75,68.18,70.3,88.75,70.3S111,75,111,95.55a9.5,9.5,0,0,1-9.5,9.5Zm67.48,0h-26.5a9.5,9.5,0,0,1-9.5-9.5h0c0-20.57,2.68-25.25,23.25-25.25S178.45,75,178.43,95.55a9.5,9.5,0,0,1-9.5,9.5Zm69.52,0H212a9.5,9.5,0,0,1-9.5-9.5h0c0-20.57,2.68-25.25,23.25-25.25S248,75,248,95.55a9.5,9.5,0,0,1-9.5,9.5Zm65.88,0h-26.5a9.5,9.5,0,0,1-9.5-9.5h0C268.33,75,271,70.3,291.58,70.3S313.83,75,313.83,95.55a9.5,9.5,0,0,1-9.5,9.5Z" transform="translate(0.5 0.5)"/></svg>